<svg xmlns="http://www.w3.org/2000/svg" viewBox="0 0 64 64"><defs><style>.cls-1{fill:#009ede;}.cls-2{fill:#0083ca;}.cls-3{fill:#fadf00;}.cls-4{fill:#ffc332;opacity:0.91;}.cls-5{fill:#fff;}</style></defs><g id="_3.sun" data-name="3.sun"><path class="cls-1" d="M42.55,24.56c-5-11.15-21.62-11.15-26.58,0C.86,23.46-.36,45.65,14.8,46.23H43.72C58.81,45.68,57.73,23.49,42.55,24.56Z"/><path class="cls-2" d="M52.8,29.38a10.59,10.59,0,0,0-2.25,0c-.2-.42-.42-.83-.65-1.22l-5.33-3.07H42l-1-1-.74-1.49L37.37,21A14.59,14.59,0,0,0,24,29.39c-8.9-1.28-15.4,9.52-10.26,16.78a9.82,9.82,0,0,0,1.09.06H43.72C52.17,46.48,57.64,36.23,52.8,29.38Z"/><path class="cls-3" d="M42.55,24.56a10.77,10.77,0,0,1,9.36,3.65C57.75,14.83,39.48,4.54,31,16.22A14.58,14.58,0,0,1,42.55,24.56Z"/><path class="cls-4" d="M42.55,24.56A10.8,10.8,0,0,1,52,28.25,12.15,12.15,0,0,0,36,17.76,14.63,14.63,0,0,1,42.55,24.56Z"/><path class="cls-5" d="M32.3,19.47c-1.6-.73-9.19-.59-8.45,2.09a1,1,0,0,0,.89.55c2.22-.89,4.65-1.48,7-.71A1,1,0,0,0,32.3,19.47Z"/><path class="cls-5" d="M21.4,22.32c-.91.62-1.14,2.11.23,2.22.56,0,.8-.41,1.19-.81C23.75,22.83,22.31,21.39,21.4,22.32Z"/><path class="cls-5" d="M18.44,29.42c.51-1.38-1.38-1.67-2.33-1.88a7.81,7.81,0,0,0-7.47,2.67c-.86,1,.69,2.29,1.52,1.29a5.91,5.91,0,0,1,5.6-2C16.65,29.6,17.87,30.59,18.44,29.42Z"/><path class="cls-5" d="M8.12,32.88c-1.57-.44-2,3.55-.37,3.46,1.25,0,.93-1.44,1.14-2.27A1,1,0,0,0,8.12,32.88Z"/><path d="M53.19,23c.09-11.86-15.69-16.7-22.25-6.85a14.62,14.62,0,0,0-15,8.34C.85,23.43-.36,45.65,14.8,46.23a1,1,0,0,0,0-2,8.9,8.9,0,0,1-8.89-8.89c0-9.61,13.42-12.29,17.1-3.43a1,1,0,1,0,1.84-.76A11,11,0,0,0,18,24.93c4.33-9,18.19-9,22.52,0a10.94,10.94,0,0,0-6.86,6.22,1,1,0,0,0,1.85.76,8.91,8.91,0,0,1,6.61-5.32c12.69-1.76,14.4,17.08,1.6,17.64a1,1,0,0,0,0,2C52.86,46.43,58,35,52,28.26A12,12,0,0,0,53.19,23Zm-10.65,1.5a14.53,14.53,0,0,0-9.44-7.94c7.29-8.91,21.61-.51,17.36,10.2A10.7,10.7,0,0,0,42.54,24.53Z"/><path class="cls-5" d="M46,15.72c-1.06-.9-5.21-3.12-5.69-.89a1,1,0,0,0,.94,1.06,6,6,0,0,1,3.42,1.32C45.59,18.19,47.05,16.57,46,15.72Z"/><path class="cls-5" d="M38.06,14.53a8.67,8.67,0,0,0-1.12.62A1,1,0,0,0,37.49,17c.82-.22,2.36-.83,1.89-1.94A1,1,0,0,0,38.06,14.53Z"/><path d="M41,9.87a1,1,0,0,0,1-1V4.92a1,1,0,0,0-2,0V8.87A1,1,0,0,0,41,9.87Z"/><path d="M51.29,13.73a1,1,0,0,0,.7-.29l2.8-2.79a1,1,0,0,0-1.42-1.42L50.58,12A1,1,0,0,0,51.29,13.73Z"/><path d="M59.09,22h-4a1,1,0,0,0,0,2h4A1,1,0,0,0,59.09,22Z"/><path d="M30,13.44c.9.93,2.35-.51,1.42-1.42l-2.8-2.79c-.9-.93-2.34.51-1.41,1.42Z"/><path d="M19,42.08a1,1,0,0,0-1,1v16a1,1,0,0,0,2,0v-16A1,1,0,0,0,19,42.08Z"/><path d="M24,38.08a1,1,0,0,0-1,1v16a1,1,0,0,0,2,0v-16A1,1,0,0,0,24,38.08Z"/><path d="M29,42.08a1,1,0,0,0-1,1v16a1,1,0,0,0,2,0v-16A1,1,0,0,0,29,42.08Z"/><path d="M34,38.08a1,1,0,0,0-1,1v16a1,1,0,0,0,2,0v-16A1,1,0,0,0,34,38.08Z"/><path d="M39,42.08a1,1,0,0,0-1,1v16a1,1,0,0,0,2,0v-16A1,1,0,0,0,39,42.08Z"/></g></svg>