<svg width="32" height="31" viewBox="0 0 32 31" fill="none" xmlns="http://www.w3.org/2000/svg">
<g clip-path="url(#clip0_2013_497)">
<path d="M16 0C12.8355 0 9.74207 0.909059 7.11088 2.61222C4.4797 4.31538 2.42894 6.73615 1.21793 9.56841C0.00693258 12.4007 -0.309921 15.5172 0.307443 18.5239C0.924806 21.5306 2.44866 24.2924 4.6863 26.4602C6.92394 28.6279 9.77487 30.1041 12.8786 30.7022C15.9823 31.3002 19.1993 30.9933 22.1229 29.8201C25.0466 28.647 27.5454 26.6603 29.3035 24.1113C31.0616 21.5624 32 18.5656 32 15.5C32 11.3891 30.3143 7.44666 27.3137 4.53984C24.3131 1.63303 20.2435 0 16 0ZM16 24.5417C15.7363 24.5417 15.4785 24.4659 15.2592 24.324C15.04 24.1821 14.8691 23.9803 14.7682 23.7443C14.6673 23.5083 14.6408 23.2486 14.6923 22.998C14.7437 22.7474 14.8707 22.5173 15.0572 22.3367C15.2437 22.156 15.4812 22.033 15.7399 21.9832C15.9985 21.9333 16.2666 21.9589 16.5103 22.0567C16.7539 22.1544 16.9621 22.32 17.1086 22.5324C17.2551 22.7448 17.3333 22.9945 17.3333 23.25C17.3333 23.5926 17.1929 23.9211 16.9428 24.1633C16.6928 24.4056 16.3536 24.5417 16 24.5417ZM18.1 17.05C17.8856 17.1207 17.698 17.252 17.5613 17.427C17.4247 17.6019 17.3452 17.8126 17.3333 18.0317V18.7292C17.3333 19.0717 17.1929 19.4003 16.9428 19.6425C16.6928 19.8847 16.3536 20.0208 16 20.0208C15.6464 20.0208 15.3072 19.8847 15.0572 19.6425C14.8072 19.4003 14.6667 19.0717 14.6667 18.7292V18.0317C14.6764 17.2948 14.915 16.5778 15.3514 15.9742C15.7878 15.3705 16.4018 14.9082 17.1133 14.6475C17.6795 14.4313 18.1638 14.0524 18.501 13.5618C18.8383 13.0711 19.0124 12.4921 19 11.9027C18.9749 11.1505 18.6548 10.4359 18.1049 9.90433C17.5549 9.37278 16.8165 9.06428 16.04 9.04167C15.6421 9.03322 15.2466 9.10329 14.8776 9.24763C14.5085 9.39197 14.1736 9.60755 13.8933 9.88125C13.6101 10.1509 13.3852 10.4726 13.2318 10.8274C13.0784 11.1823 12.9996 11.5632 13 11.9479C13 12.2905 12.8595 12.619 12.6095 12.8613C12.3594 13.1035 12.0203 13.2396 11.6667 13.2396C11.3131 13.2396 10.9739 13.1035 10.7239 12.8613C10.4738 12.619 10.3333 12.2905 10.3333 11.9479C10.3333 10.492 10.9304 9.09569 11.9931 8.0662C13.0558 7.0367 14.4971 6.45833 16 6.45833H16.08C17.3905 6.47838 18.6533 6.93789 19.6534 7.75859C20.6534 8.5793 21.3289 9.71046 21.5647 10.9594C21.8005 12.2084 21.5822 13.498 20.9468 14.6085C20.3114 15.719 19.2983 16.5818 18.08 17.05H18.1Z" fill="#B8B8B8"/>
</g>
<defs>
<clipPath id="clip0_2013_497">
<rect width="32" height="31" fill="white"/>
</clipPath>
</defs>
</svg>
