<svg width="25" height="33" viewBox="0 0 25 33" fill="none" xmlns="http://www.w3.org/2000/svg">
<g clip-path="url(#clip0_2013_493)">
<path d="M0 4.125V28.875C0 29.969 0.438987 31.0182 1.22039 31.7918C2.00179 32.5654 3.0616 33 4.16667 33H18.0556C19.1606 33 20.2204 32.5654 21.0018 31.7918C21.7832 31.0182 22.2222 29.969 22.2222 28.875V27.1562C22.2222 26.7004 22.0393 26.2632 21.7137 25.9409C21.3881 25.6186 20.9466 25.4375 20.4861 25.4375C20.0257 25.4375 19.5841 25.6186 19.2585 25.9409C18.9329 26.2632 18.75 26.7004 18.75 27.1562V28.875C18.75 29.0573 18.6768 29.2322 18.5466 29.3611C18.4164 29.4901 18.2397 29.5625 18.0556 29.5625H4.16667C3.98249 29.5625 3.80585 29.4901 3.67562 29.3611C3.54539 29.2322 3.47222 29.0573 3.47222 28.875V4.125C3.47222 3.94266 3.54539 3.7678 3.67562 3.63886C3.80585 3.50993 3.98249 3.4375 4.16667 3.4375H18.0556C18.2397 3.4375 18.4164 3.50993 18.5466 3.63886C18.6768 3.7678 18.75 3.94266 18.75 4.125V5.84375C18.75 6.29959 18.9329 6.73676 19.2585 7.05909C19.5841 7.38142 20.0257 7.5625 20.4861 7.5625C20.9466 7.5625 21.3881 7.38142 21.7137 7.05909C22.0393 6.73676 22.2222 6.29959 22.2222 5.84375V4.125C22.2222 3.03098 21.7832 1.98177 21.0018 1.20818C20.2204 0.434597 19.1606 0 18.0556 0L4.16667 0C3.0616 0 2.00179 0.434597 1.22039 1.20818C0.438987 1.98177 0 3.03098 0 4.125Z" fill="#B8B8B8"/>
<path d="M24.5972 17.4694L19.4028 22.6188C19.2089 22.8123 18.9614 22.9444 18.6915 22.9983C18.4217 23.0522 18.1418 23.0256 17.8873 22.9217C17.6328 22.8178 17.4152 22.6414 17.2622 22.4149C17.1091 22.1884 17.0275 21.9219 17.0278 21.6494V19.25H10.1319C9.76357 19.25 9.4103 19.1052 9.14984 18.8473C8.88937 18.5894 8.74304 18.2397 8.74304 17.875V15.125C8.74304 14.7603 8.88937 14.4106 9.14984 14.1528C9.4103 13.8949 9.76357 13.75 10.1319 13.75H17.0278V11.3506C17.0275 11.0781 17.1091 10.8117 17.2622 10.5852C17.4152 10.3586 17.6328 10.1822 17.8873 10.0783C18.1418 9.97447 18.4217 9.94781 18.6915 10.0017C18.9614 10.0557 19.2089 10.1878 19.4028 10.3813L24.5972 15.5306C24.8559 15.7883 25.0011 16.1368 25.0011 16.5C25.0011 16.8633 24.8559 17.2118 24.5972 17.4694Z" fill="#B8B8B8"/>
</g>
<defs>
<clipPath id="clip0_2013_493">
<rect width="25" height="33" fill="white"/>
</clipPath>
</defs>
</svg>
