<svg width="35" height="35" viewBox="0 0 35 35" fill="none" xmlns="http://www.w3.org/2000/svg">
<g clip-path="url(#clip0_2019_1132)">
<mask id="mask0_2019_1132" style="mask-type:luminance" maskUnits="userSpaceOnUse" x="0" y="0" width="35" height="35">
<path d="M35 0H0V35H35V0Z" fill="white"/>
</mask>
<g mask="url(#mask0_2019_1132)">
<path fill-rule="evenodd" clip-rule="evenodd" d="M18.3578 5.34373C17.8465 4.97183 17.1536 4.97183 16.6424 5.34373L7.29177 12.1441V29.1666C7.29177 29.9721 7.94469 30.625 8.7501 30.625H11.6668V21.875C11.6668 19.4588 13.6255 17.5 16.0418 17.5H18.9585C21.3746 17.5 23.3335 19.4588 23.3335 21.875V30.625H26.2501C27.0556 30.625 27.7085 29.9721 27.7085 29.1666V12.1441L18.3578 5.34373ZM30.6251 14.2654L32.684 15.7628C33.3355 16.2365 34.2475 16.0925 34.7212 15.4411C35.1948 14.7897 35.0509 13.8777 34.3995 13.4039L20.0734 2.98491C18.5392 1.86921 16.4609 1.86921 14.9269 2.98491L0.600686 13.4039C-0.0506822 13.8777 -0.194693 14.7897 0.279029 15.4411C0.752752 16.0925 1.66482 16.2365 2.31618 15.7628L4.3751 14.2654V29.1666C4.3751 31.583 6.33386 33.5416 8.7501 33.5416H26.2501C28.6663 33.5416 30.6251 31.583 30.6251 29.1666V14.2654ZM20.4168 30.625V21.875C20.4168 21.0695 19.7639 20.4166 18.9585 20.4166H16.0418C15.2364 20.4166 14.5835 21.0695 14.5835 21.875V30.625H20.4168Z" fill="#B8B8B8"/>
</g>
</g>
<defs>
<clipPath id="clip0_2019_1132">
<rect width="35" height="35" fill="white"/>
</clipPath>
</defs>
</svg>
