<?xml version="1.0" encoding="UTF-8" standalone="no"?> <svg width="64" height="64" viewBox="0 0 64 64" fill="none" xmlns="http://www.w3.org/2000/svg">
<path d="M29 53C41.7025 53 52 42.7025 52 30C52 17.2975 41.7025 7 29 7C16.2975 7 6 17.2975 6 30C6 42.7025 16.2975 53 29 53Z" fill="#FCEA42"/>
<path d="M52 30C52 36.1 49.5768 41.9501 45.2635 46.2635C40.9501 50.5768 35.1 53 29 53C22.9 53 17.0499 50.5768 12.7365 46.2635C8.42321 41.9501 6 36.1 6 30C5.98946 26.0104 7.03115 22.0886 9.02 18.63C9.15397 23.649 10.9277 28.486 14.07 32.4018C17.2124 36.3176 21.5505 39.0968 26.4214 40.3145C31.2922 41.5322 36.4278 41.1215 41.0432 39.1451C45.6586 37.1688 49.4999 33.7355 51.98 29.37C52 29.58 52 29.79 52 30Z" fill="#FDC741"/>
<path d="M55.5 4.64801L56.926 7.53701L60.115 8.00101L57.807 10.25L58.352 13.426L55.5 11.926L52.648 13.426L53.193 10.25L50.885 8.00101L54.074 7.53701L55.5 4.64801Z" fill="#FCEA42"/>
<path d="M53.5 48.648L54.926 51.537L58.115 52.001L55.807 54.25L56.352 57.426L53.5 55.926L50.648 57.426L51.193 54.25L48.885 52.001L52.074 51.537L53.5 48.648Z" fill="#FCEA42"/>
<path d="M7.615 52.222L9.041 55.112L12.23 55.575L9.922 57.824L10.467 61L7.615 59.501L4.763 61L5.307 57.824L3 55.575L6.189 55.112L7.615 52.222Z" fill="#FCEA42"/>
<path d="M48.71 41.85C46.8574 44.9323 44.3078 47.5372 41.266 49.4556C38.2242 51.374 34.7749 52.5523 31.1952 52.896C27.6154 53.2398 24.005 52.7393 20.6537 51.4348C17.3024 50.1303 14.3038 48.0581 11.8985 45.3846C9.49319 42.7112 7.74832 39.511 6.80399 36.041C5.85965 32.571 5.74216 28.9279 6.46095 25.4042C7.17974 21.8806 8.71478 18.5746 10.9428 15.7517C13.1708 12.9288 16.0298 10.6678 19.29 9.15002C16.753 13.371 15.6378 18.2948 16.1085 23.197C16.5792 28.0992 18.6109 32.7209 21.9048 36.382C25.1987 40.0431 29.5807 42.5503 34.406 43.5346C39.2314 44.5189 44.2453 43.9284 48.71 41.85V41.85Z" fill="#FDC741"/>
<path d="M48.71 41.85C45.5581 46.9676 40.5281 50.6481 34.6967 52.1037C28.8652 53.5593 22.6957 52.6744 17.5084 49.6384C12.3212 46.6024 8.52851 41.6565 6.94206 35.8593C5.3556 30.0621 6.10146 23.8742 9.02 18.62C9.15023 23.6663 10.9402 28.5289 14.1127 32.4553C17.2853 36.3817 21.6636 39.1529 26.57 40.34C29.8322 42.4418 33.5738 43.6827 37.4455 43.9467C41.3172 44.2108 45.1926 43.4894 48.71 41.85Z" fill="#EFAD1B"/>
<path d="M40 28C42.7614 28 45 25.7614 45 23C45 20.2386 42.7614 18 40 18C37.2386 18 35 20.2386 35 23C35 25.7614 37.2386 28 40 28Z" fill="#FDC741"/>
<path d="M42 37C43.1046 37 44 36.1046 44 35C44 33.8954 43.1046 33 42 33C40.8954 33 40 33.8954 40 35C40 36.1046 40.8954 37 42 37Z" fill="#FDC741"/>
<path d="M26 30C27.1046 30 28 29.1046 28 28C28 26.8954 27.1046 26 26 26C24.8954 26 24 26.8954 24 28C24 29.1046 24.8954 30 26 30Z" fill="#FDC741"/>
<path d="M17 42C18.1046 42 19 41.1046 19 40C19 38.8954 18.1046 38 17 38C15.8954 38 15 38.8954 15 40C15 41.1046 15.8954 42 17 42Z" fill="#D8950F"/>
<path d="M30 16C31.1046 16 32 15.1046 32 14C32 12.8954 31.1046 12 30 12C28.8954 12 28 12.8954 28 14C28 15.1046 28.8954 16 30 16Z" fill="#FDC741"/>
<path d="M55.5 4.64801L55.273 6.97401C55.2384 7.32822 55.299 7.68524 55.4485 8.00822C55.5979 8.33121 55.8309 8.60846 56.1233 8.81136C56.4157 9.01427 56.7569 9.13548 57.1118 9.16249C57.4666 9.1895 57.8223 9.12133 58.142 8.96501L60.115 8.00001L57.807 10.25L58.352 13.426L55.5 11.926L52.648 13.426L53.193 10.25L50.885 8.00001L54.074 7.53601L55.5 4.64801Z" fill="#FDC741"/>
<path d="M53.5 48.648L53.273 50.974C53.2384 51.3282 53.299 51.6852 53.4485 52.0082C53.5979 52.3312 53.8309 52.6085 54.1233 52.8114C54.4157 53.0143 54.7569 53.1355 55.1118 53.1625C55.4666 53.1895 55.8223 53.1213 56.142 52.965L58.115 52L55.807 54.25L56.352 57.426L53.5 55.926L50.648 57.426L51.193 54.25L48.885 52L52.074 51.536L53.5 48.648Z" fill="#FDC741"/>
<path d="M7.615 52.222L7.388 54.549C7.35363 54.9031 7.41435 55.26 7.5639 55.5828C7.71345 55.9057 7.94642 56.1828 8.23877 56.3856C8.53112 56.5883 8.87227 56.7095 9.22704 56.7364C9.58181 56.7634 9.93735 56.6952 10.257 56.539L12.23 55.575L9.922 57.824L10.467 61L7.615 59.5L4.763 61L5.307 57.824L3 55.575L6.189 55.112L7.615 52.222Z" fill="#FDC741"/>
<path d="M44.39 25.39C44.0187 26.0737 43.4931 26.6613 42.8548 27.1061C42.2165 27.5509 41.4833 27.8406 40.7134 27.9522C39.9434 28.0638 39.1581 27.9942 38.4198 27.749C37.6815 27.5037 37.0106 27.0896 36.4605 26.5395C35.9104 25.9894 35.4963 25.3185 35.251 24.5802C35.0058 23.8419 34.9362 23.0565 35.0478 22.2866C35.1594 21.5167 35.4491 20.7834 35.8939 20.1452C36.3387 19.5069 36.9263 18.9812 37.61 18.61C37.2076 19.3422 36.9977 20.1645 37 21C37 22.3261 37.5268 23.5978 38.4645 24.5355C39.4021 25.4732 40.6739 26 42 26C42.8355 26.0022 43.6578 25.7923 44.39 25.39Z" fill="#EFAD1B"/>
<path d="M43.82 35.82C43.6881 36.1166 43.4861 36.3766 43.2313 36.5777C42.9765 36.7787 42.6766 36.9147 42.3575 36.9739C42.0384 37.0332 41.7096 37.0139 41.3996 36.9177C41.0897 36.8215 40.8077 36.6513 40.5782 36.4217C40.3487 36.1922 40.1785 35.9103 40.0823 35.6004C39.9861 35.2904 39.9668 34.9616 40.026 34.6425C40.0853 34.3234 40.2213 34.0235 40.4223 33.7687C40.6234 33.5139 40.8834 33.3118 41.18 33.18C41.0593 33.4364 40.9978 33.7166 41 34C41.0016 34.5299 41.2128 35.0377 41.5875 35.4125C41.9623 35.7872 42.4701 35.9984 43 36C43.2834 36.0022 43.5636 35.9407 43.82 35.82V35.82Z" fill="#EFAD1B"/>
<path d="M27.82 28.82C27.6881 29.1166 27.4861 29.3766 27.2313 29.5777C26.9765 29.7787 26.6766 29.9147 26.3575 29.9739C26.0384 30.0332 25.7096 30.0139 25.3996 29.9177C25.0897 29.8215 24.8077 29.6513 24.5782 29.4217C24.3487 29.1922 24.1785 28.9103 24.0823 28.6004C23.9861 28.2904 23.9668 27.9616 24.026 27.6425C24.0853 27.3234 24.2213 27.0235 24.4223 26.7687C24.6234 26.5139 24.8834 26.3118 25.18 26.18C25.0593 26.4364 24.9978 26.7166 25 27C25.0016 27.5299 25.2128 28.0377 25.5875 28.4125C25.9623 28.7872 26.4701 28.9984 27 29C27.2834 29.0022 27.5636 28.9407 27.82 28.82V28.82Z" fill="#EFAD1B"/>
<path d="M31.82 14.82C31.6881 15.1166 31.4861 15.3766 31.2313 15.5777C30.9765 15.7787 30.6766 15.9147 30.3575 15.9739C30.0384 16.0332 29.7096 16.0139 29.3996 15.9177C29.0897 15.8215 28.8077 15.6513 28.5782 15.4217C28.3487 15.1922 28.1785 14.9103 28.0823 14.6004C27.9861 14.2904 27.9668 13.9616 28.026 13.6425C28.0853 13.3234 28.2213 13.0235 28.4223 12.7687C28.6234 12.5139 28.8834 12.3118 29.18 12.18C29.0593 12.4364 28.9978 12.7166 29 13C29.0016 13.5299 29.2128 14.0377 29.5875 14.4125C29.9623 14.7872 30.4701 14.9984 31 15C31.2834 15.0022 31.5636 14.9407 31.82 14.82V14.82Z" fill="#EFAD1B"/>
<path d="M8 12H7V11C7 10.7348 6.89464 10.4804 6.70711 10.2929C6.51957 10.1054 6.26522 10 6 10C5.73478 10 5.48043 10.1054 5.29289 10.2929C5.10536 10.4804 5 10.7348 5 11V12H4C3.73478 12 3.48043 12.1054 3.29289 12.2929C3.10536 12.4804 3 12.7348 3 13C3 13.2652 3.10536 13.5196 3.29289 13.7071C3.48043 13.8946 3.73478 14 4 14H5V15C5 15.2652 5.10536 15.5196 5.29289 15.7071C5.48043 15.8946 5.73478 16 6 16C6.26522 16 6.51957 15.8946 6.70711 15.7071C6.89464 15.5196 7 15.2652 7 15V14H8C8.26522 14 8.51957 13.8946 8.70711 13.7071C8.89464 13.5196 9 13.2652 9 13C9 12.7348 8.89464 12.4804 8.70711 12.2929C8.51957 12.1054 8.26522 12 8 12V12Z" fill="#FCEA42"/>
<path d="M59 44H60C60.2652 44 60.5196 43.8946 60.7071 43.7071C60.8946 43.5196 61 43.2652 61 43C61 42.7348 60.8946 42.4804 60.7071 42.2929C60.5196 42.1054 60.2652 42 60 42H59V41C59 40.7348 58.8946 40.4804 58.7071 40.2929C58.5196 40.1054 58.2652 40 58 40C57.7348 40 57.4804 40.1054 57.2929 40.2929C57.1054 40.4804 57 40.7348 57 41V42H56C55.7348 42 55.4804 42.1054 55.2929 42.2929C55.1054 42.4804 55 42.7348 55 43C55 43.2652 55.1054 43.5196 55.2929 43.7071C55.4804 43.8946 55.7348 44 56 44H57V45C57 45.2652 57.1054 45.5196 57.2929 45.7071C57.4804 45.8946 57.7348 46 58 46C58.2652 46 58.5196 45.8946 58.7071 45.7071C58.8946 45.5196 59 45.2652 59 45V44Z" fill="#FCEA42"/>
<path d="M46 5H45V4C45 3.73478 44.8946 3.48043 44.7071 3.29289C44.5196 3.10536 44.2652 3 44 3C43.7348 3 43.4804 3.10536 43.2929 3.29289C43.1054 3.48043 43 3.73478 43 4V5H42C41.7348 5 41.4804 5.10536 41.2929 5.29289C41.1054 5.48043 41 5.73478 41 6C41 6.26522 41.1054 6.51957 41.2929 6.70711C41.4804 6.89464 41.7348 7 42 7H43V8C43 8.26522 43.1054 8.51957 43.2929 8.70711C43.4804 8.89464 43.7348 9 44 9C44.2652 9 44.5196 8.89464 44.7071 8.70711C44.8946 8.51957 45 8.26522 45 8V7H46C46.2652 7 46.5196 6.89464 46.7071 6.70711C46.8946 6.51957 47 6.26522 47 6C47 5.73478 46.8946 5.48043 46.7071 5.29289C46.5196 5.10536 46.2652 5 46 5Z" fill="#FCEA42"/>
<path d="M27 57H26V56C26 55.7348 25.8946 55.4804 25.7071 55.2929C25.5196 55.1054 25.2652 55 25 55C24.7348 55 24.4804 55.1054 24.2929 55.2929C24.1054 55.4804 24 55.7348 24 56V57H23C22.7348 57 22.4804 57.1054 22.2929 57.2929C22.1054 57.4804 22 57.7348 22 58C22 58.2652 22.1054 58.5196 22.2929 58.7071C22.4804 58.8946 22.7348 59 23 59H24V60C24 60.2652 24.1054 60.5196 24.2929 60.7071C24.4804 60.8946 24.7348 61 25 61C25.2652 61 25.5196 60.8946 25.7071 60.7071C25.8946 60.5196 26 60.2652 26 60V59H27C27.2652 59 27.5196 58.8946 27.7071 58.7071C27.8946 58.5196 28 58.2652 28 58C28 57.7348 27.8946 57.4804 27.7071 57.2929C27.5196 57.1054 27.2652 57 27 57Z" fill="#FCEA42"/>
<path d="M17 5C17.5523 5 18 4.55228 18 4C18 3.44772 17.5523 3 17 3C16.4477 3 16 3.44772 16 4C16 4.55228 16.4477 5 17 5Z" fill="#FCEA42"/>
<path d="M8 8C8.55228 8 9 7.55228 9 7C9 6.44772 8.55228 6 8 6C7.44772 6 7 6.44772 7 7C7 7.55228 7.44772 8 8 8Z" fill="#FCEA42"/>
<path d="M14 10C14.5523 10 15 9.55228 15 9C15 8.44772 14.5523 8 14 8C13.4477 8 13 8.44772 13 9C13 9.55228 13.4477 10 14 10Z" fill="#FCEA42"/>
<path d="M6 47C6.55228 47 7 46.5523 7 46C7 45.4477 6.55228 45 6 45C5.44772 45 5 45.4477 5 46C5 46.5523 5.44772 47 6 47Z" fill="#FCEA42"/>
<path d="M45 58C45.5523 58 46 57.5523 46 57C46 56.4477 45.5523 56 45 56C44.4477 56 44 56.4477 44 57C44 57.5523 44.4477 58 45 58Z" fill="#FCEA42"/>
<path d="M56 22C56.5523 22 57 21.5523 57 21C57 20.4477 56.5523 20 56 20C55.4477 20 55 20.4477 55 21C55 21.5523 55.4477 22 56 22Z" fill="#FCEA42"/>
<path d="M24 20C24.5523 20 25 19.5523 25 19C25 18.4477 24.5523 18 24 18C23.4477 18 23 18.4477 23 19C23 19.5523 23.4477 20 24 20Z" fill="#FDC741"/>
<path d="M60 61C60.5523 61 61 60.5523 61 60C61 59.4477 60.5523 59 60 59C59.4477 59 59 59.4477 59 60C59 60.5523 59.4477 61 60 61Z" fill="#FCEA42"/>
<path d="M35 58C35.5523 58 36 57.5523 36 57C36 56.4477 35.5523 56 35 56C34.4477 56 34 56.4477 34 57C34 57.5523 34.4477 58 35 58Z" fill="#FCEA42"/>
<path d="M27 48C27.5523 48 28 47.5523 28 47C28 46.4477 27.5523 46 27 46C26.4477 46 26 46.4477 26 47C26 47.5523 26.4477 48 27 48Z" fill="#D8950F"/>
<path d="M10 34C10.5523 34 11 33.5523 11 33C11 32.4477 10.5523 32 10 32C9.44772 32 9 32.4477 9 33C9 33.5523 9.44772 34 10 34Z" fill="#D8950F"/>
</svg>
